<svg width="40" height="60" viewBox="0 0 40 60" fill="none" xmlns="http://www.w3.org/2000/svg">
<path d="M1.62504 29.4851L1.62498 29.4851L1.625 29.4984C1.63782 37.9102 7.52115 44.9257 15.4275 46.9118L15.551 46.9428L15.6513 46.9506C15.66 46.9528 15.6729 46.9564 15.6912 46.962C15.71 46.9678 15.7317 46.9748 15.7593 46.984C15.891 47.0294 16.0422 47.1432 16.1562 47.3582V53.9414C16.1562 56.0668 17.8906 57.75 20 57.75H20.0117C22.131 57.75 23.8438 56.057 23.8438 53.9414V47.3453C23.9549 47.1343 24.0984 47.029 24.2289 46.984C24.2876 46.9645 24.3155 46.9563 24.3334 46.9518C24.3334 46.9518 24.3335 46.9518 24.3335 46.9518L24.445 46.9439L24.5725 46.9118C32.477 44.9262 38.375 37.9115 38.375 29.4961V27.9023C38.375 25.8049 36.6093 24.1875 34.5898 24.1875C32.5756 24.1875 30.8047 25.7882 30.8047 27.9023V29.4961C30.8047 32.4176 29.6304 35.0341 27.6723 36.9527C25.6882 38.8734 22.9999 40.0664 19.9883 40.0664C16.9744 40.0664 14.3117 38.8836 12.3423 36.9555C10.3803 35.0346 9.19531 32.4045 9.19531 29.4961V27.9023C9.19531 25.8098 7.44643 24.1875 5.41016 24.1875C3.38253 24.1875 1.64017 25.8115 1.63672 27.8961L1.62504 29.4851Z" fill="#5ACBEE" stroke="white" stroke-width="3"/>
<path d="M9.47656 12.6211V29.4727C9.47656 35.2325 14.2479 39.8438 20.0586 39.8438C25.8693 39.8438 30.6406 35.2325 30.6406 29.4727V12.6211C30.6406 6.86127 25.8693 2.25 20.0586 2.25C14.2479 2.25 9.47656 6.86127 9.47656 12.6211Z" fill="#5ACBEE" stroke="white" stroke-width="3"/>
</svg>
