<svg width="84" height="51" viewBox="0 0 84 51" fill="none" xmlns="http://www.w3.org/2000/svg">
<path d="M1.75736 40.2574C-0.585786 42.6005 -0.585786 46.3995 1.75736 48.7426C4.10051 51.0858 7.89949 51.0858 10.2426 48.7426L1.75736 40.2574ZM42 8.5L46.2426 4.25736L42 0.0147186L37.7574 4.25736L42 8.5ZM73.7574 48.7426C76.1005 51.0858 79.8995 51.0858 82.2426 48.7426C84.5858 46.3995 84.5858 42.6005 82.2426 40.2574L73.7574 48.7426ZM10.2426 48.7426L46.2426 12.7426L37.7574 4.25736L1.75736 40.2574L10.2426 48.7426ZM37.7574 12.7426L73.7574 48.7426L82.2426 40.2574L46.2426 4.25736L37.7574 12.7426Z" fill="black"/>
</svg>
